<svg width="32" height="40" viewBox="0 0 32 40" fill="none" xmlns="http://www.w3.org/2000/svg">
<path d="M21.8093 18.7089L17.9649 14.9432L19.7468 13.1978L21.8093 15.2182L25.3119 11.7872L16 2.65392L1.91609 16.4495L11.2281 25.5828L14.7429 22.1518L12.6804 20.1315L14.4622 18.3862L18.3066 22.1518L13.0221 27.3282L16.0122 30.257L30.0961 16.4615L27.106 13.5326L21.8093 18.7089ZM9.69035 17.1907L8.40884 15.9354L15.4752 9.01376L16.7567 10.257L9.69035 17.1907ZM27.2281 11.0101L16 0L0 15.6725V24.3276L11.0938 35.1943V35.2062L16 40L32 24.3276V15.6725L27.2281 11.0101ZM31.2067 23.9929L16 38.8882L11.8871 34.8715V33.5685L11.2281 34.214L0.793287 23.9929V15.9952L16 1.09982L26.4348 11.321V12.6241L27.0938 11.9785L31.2067 15.9952V23.9929Z" fill="white"/>
</svg>

<svg version="1.1" id="Layer_1" xmlns="http://www.w3.org/2000/svg" xmlns:xlink="http://www.w3.org/1999/xlink" x="0px" y="0px"
	 width="16" height="16" viewBox="0 0 16 16">
<g>
	<path fill-rule="evenodd" clip-rule="evenodd" fill="#FFFFFF" d="M39.431,36.268c-4.228-2.44-8.109-5.426-11.532-8.852
		c-3.434-3.434-6.433-7.312-8.866-11.539L2.938,25.159c3.255,5.644,7.252,10.811,11.815,15.382
		c4.588,4.575,9.737,8.554,15.376,11.814C41.072,58.683,53.758,62.3,67.29,62.3V43.726C57.14,43.726,47.619,41.016,39.431,36.268
		L39.431,36.268z"/>
	<path fill-rule="evenodd" clip-rule="evenodd" fill="#CCC4D5" d="M98.864,109.405v3.713c0,10.26-8.319,18.575-18.581,18.575
		v-18.575v-3.713V93.625v-9.285v-9.29c15.862,0,30.727-4.242,43.527-11.643l9.29,16.084c-10.417,6.028-21.963,10.335-34.236,12.505
		V109.405L98.864,109.405z"/>
	<path fill-rule="evenodd" clip-rule="evenodd" fill="#CCC4D5" d="M67.29,109.405v3.713v18.575
		c-10.265,0-18.581-8.315-18.581-18.575v-3.713V91.996c-12.276-2.17-23.821-6.477-34.237-12.505l9.276-16.084
		c12.814,7.4,27.676,11.643,43.542,11.643v9.29v9.285V109.405L67.29,109.405z"/>
	<path fill-rule="evenodd" clip-rule="evenodd" fill="#FFFFFF" d="M108.152,36.268c4.215-2.44,8.111-5.426,11.532-8.852
		c3.422-3.434,6.42-7.312,8.855-11.539l16.093,9.282c-3.253,5.644-7.239,10.811-11.814,15.382
		c-4.573,4.575-9.737,8.554-15.377,11.814C106.513,58.683,93.813,62.3,80.283,62.3V43.726
		C90.431,43.726,99.951,41.016,108.152,36.268z"/>
</g>
</svg>
